<svg width="20" height="21" viewBox="0 0 20 21" fill="none" xmlns="http://www.w3.org/2000/svg">
<path d="M1 20.5938C0.734784 20.5938 0.48043 20.4884 0.292893 20.3009C0.105357 20.1133 0 19.859 0 19.5938V1.59375C0 1.32853 0.105357 1.07418 0.292893 0.886643C0.48043 0.699107 0.734784 0.59375 1 0.59375C1.26522 0.59375 1.51957 0.699107 1.70711 0.886643C1.89464 1.07418 2 1.32853 2 1.59375V19.5938C2 19.859 1.89464 20.1133 1.70711 20.3009C1.51957 20.4884 1.26522 20.5938 1 20.5938ZM13.5 0.72775C13.348 0.639983 13.1755 0.593777 13 0.593776C12.8245 0.593774 12.652 0.639978 12.5 0.727744C12.348 0.815509 12.2218 0.941743 12.134 1.09376C12.0462 1.24577 12 1.41822 12 1.59375V19.5938C12 19.859 12.1054 20.1133 12.2929 20.3009C12.4804 20.4884 12.7348 20.5938 13 20.5938H19C19.2652 20.5938 19.5196 20.4884 19.7071 20.3009C19.8946 20.1133 20 19.859 20 19.5938V5.05775C20 4.88222 19.9538 4.70978 19.866 4.55776C19.7782 4.40575 19.652 4.27952 19.5 4.19175L13.5 0.72775ZM7 0.59375C6.73478 0.59375 6.48043 0.699107 6.29289 0.886643C6.10536 1.07418 6 1.32853 6 1.59375V19.5938C6 19.859 6.10536 20.1133 6.29289 20.3009C6.48043 20.4884 6.73478 20.5938 7 20.5938C7.26522 20.5938 7.51957 20.4884 7.70711 20.3009C7.89464 20.1133 8 19.859 8 19.5938V1.59375C8 1.32853 7.89464 1.07418 7.70711 0.886643C7.51957 0.699107 7.26522 0.59375 7 0.59375Z" fill="#B3B3B3"/>
</svg>
